<svg xmlns="http://www.w3.org/2000/svg" xmlns:xlink="http://www.w3.org/1999/xlink" width="500" zoomAndPan="magnify" viewBox="0 0 375 374.999991" height="500" preserveAspectRatio="xMidYMid meet" version="1.0"><defs><g/><clipPath id="215baf3a5a"><path d="M 169 139 L 248.046875 139 L 248.046875 186.320312 L 169 186.320312 Z M 169 139 " clip-rule="nonzero"/></clipPath><clipPath id="4d5c73793e"><path d="M 151 131 L 247 131 L 247 186.320312 L 151 186.320312 Z M 151 131 " clip-rule="nonzero"/></clipPath><clipPath id="59f85446f0"><path d="M 112.359375 155 L 160 155 L 160 159 L 112.359375 159 Z M 112.359375 155 " clip-rule="nonzero"/></clipPath><clipPath id="3941c6f407"><path d="M 112.359375 167 L 160 167 L 160 171 L 112.359375 171 Z M 112.359375 167 " clip-rule="nonzero"/></clipPath></defs><g clip-path="url(#215baf3a5a)"><path fill="#31263e" d="M 242.90625 166.132812 C 241.835938 166.628906 240.753906 167.121094 239.660156 167.625 C 239.257812 167.03125 238.855469 166.429688 238.460938 165.816406 C 239.554688 165.328125 240.652344 164.84375 241.71875 164.359375 C 240.238281 162.226562 238.582031 160.175781 236.804688 158.265625 C 235.972656 159.058594 235.144531 159.855469 234.308594 160.667969 C 233.789062 160.152344 233.277344 159.621094 232.769531 159.085938 C 233.609375 158.277344 234.457031 157.488281 235.289062 156.691406 C 233.421875 154.828125 231.425781 153.082031 229.308594 151.476562 C 228.785156 152.554688 228.246094 153.632812 227.707031 154.71875 C 227.105469 154.285156 226.511719 153.859375 225.910156 153.421875 C 226.457031 152.34375 227.003906 151.269531 227.539062 150.199219 C 225.375 148.707031 223.105469 147.34375 220.742188 146.171875 C 220.550781 147.464844 220.367188 148.765625 220.171875 150.066406 C 219.511719 149.765625 218.851562 149.457031 218.191406 149.148438 C 218.394531 147.84375 218.59375 146.546875 218.78125 145.257812 C 216.429688 144.203125 213.976562 143.324219 211.460938 142.648438 C 211.648438 144.097656 211.839844 145.558594 212.027344 147.015625 C 211.335938 146.851562 210.660156 146.699219 209.96875 146.535156 C 209.785156 145.070312 209.601562 143.609375 209.410156 142.152344 C 206.855469 141.601562 204.359375 141.289062 201.917969 141.203125 C 202.511719 142.742188 203.113281 144.289062 203.722656 145.832031 C 203.042969 145.851562 202.367188 145.863281 201.679688 145.863281 C 201.074219 144.300781 200.46875 142.746094 199.871094 141.1875 C 197.371094 141.246094 194.953125 141.558594 192.667969 142.121094 C 193.667969 143.652344 194.683594 145.199219 195.707031 146.730469 C 195.082031 146.914062 194.449219 147.105469 193.820312 147.292969 C 192.804688 145.746094 191.78125 144.195312 190.761719 142.644531 C 188.449219 143.367188 186.296875 144.351562 184.304688 145.570312 C 185.707031 146.996094 187.132812 148.414062 188.535156 149.824219 C 188.015625 150.195312 187.484375 150.570312 186.964844 150.945312 C 185.53125 149.515625 184.113281 148.09375 182.683594 146.667969 C 180.757812 148.058594 179.023438 149.707031 177.535156 151.585938 C 179.292969 152.761719 181.058594 153.933594 182.816406 155.09375 C 182.433594 155.644531 182.054688 156.1875 181.671875 156.730469 C 179.902344 155.558594 178.128906 154.382812 176.339844 153.207031 C 174.980469 155.234375 173.871094 157.492188 173.070312 159.960938 C 175.09375 160.777344 177.109375 161.566406 179.097656 162.355469 C 178.917969 163.042969 178.734375 163.726562 178.554688 164.417969 C 176.539062 163.632812 174.523438 162.835938 172.476562 162.027344 C 171.851562 164.566406 171.519531 167.292969 171.542969 170.191406 C 173.671875 170.5 175.792969 170.816406 177.878906 171.117188 C 177.921875 171.898438 177.96875 172.675781 178.011719 173.46875 C 175.902344 173.175781 173.777344 172.871094 171.640625 172.574219 C 171.972656 177.230469 173.148438 181.851562 175.023438 186.273438 L 172.824219 186.273438 C 170.773438 181.296875 169.570312 176.136719 169.386719 171.0625 C 168.953125 158.847656 174.03125 149.9375 182.042969 144.675781 C 189.5 139.777344 199.785156 138.367188 210.253906 140.945312 C 220.726562 143.523438 229.742188 149.277344 236.878906 156.6875 C 241.527344 161.519531 245.394531 167.097656 248.046875 173.191406 L 246.867188 173.191406 C 245.78125 170.753906 244.492188 168.605469 242.90625 166.132812 " fill-opacity="1" fill-rule="evenodd"/></g><path fill="#ee5622" d="M 223.195312 153.355469 C 223.988281 153.84375 224.464844 154.761719 224.25 155.410156 C 223.183594 158.582031 222.105469 161.835938 220.996094 165.171875 C 219.859375 168.59375 218.691406 172.09375 217.496094 175.691406 C 218.136719 176.417969 218.503906 176.726562 218.707031 178.214844 C 218.90625 179.699219 217.535156 181.734375 215.414062 181.445312 C 213.296875 181.15625 211.355469 179.164062 211.105469 177.09375 C 210.859375 175.027344 212.296875 173.675781 214.328125 173.917969 C 215.558594 170.328125 216.773438 166.828125 217.953125 163.417969 C 219.105469 160.082031 220.234375 156.832031 221.335938 153.667969 C 221.558594 153.019531 222.398438 152.882812 223.195312 153.355469 " fill-opacity="1" fill-rule="evenodd"/><g clip-path="url(#4d5c73793e)"><path fill="#ee5622" d="M 204.136719 133.054688 C 215.363281 136.015625 222.203125 140.226562 229.484375 146.1875 C 236.621094 152.03125 242.671875 159.300781 246.886719 167.226562 C 243 160.558594 237.679688 154.488281 231.503906 149.632812 C 225.214844 144.6875 219.625 141.292969 209.980469 138.863281 C 200.335938 136.4375 187.949219 137.480469 179.976562 142.59375 C 171.347656 148.132812 165.824219 157.542969 166.203125 170.601562 C 166.355469 175.820312 167.535156 181.128906 169.566406 186.273438 L 155.402344 186.273438 C 153.152344 180.332031 151.925781 174.214844 151.925781 168.238281 C 151.925781 153.210938 158.808594 142.648438 169.1875 136.578125 C 178.675781 131.023438 192.90625 130.097656 204.136719 133.054688 " fill-opacity="1" fill-rule="evenodd"/></g><path fill="#ee5622" d="M 147.125 131.410156 L 191.496094 131.410156 C 192.359375 131.410156 193.0625 132.113281 193.0625 132.96875 C 193.0625 133.828125 192.359375 134.53125 191.496094 134.53125 L 147.125 134.53125 C 146.261719 134.53125 145.558594 133.828125 145.558594 132.96875 C 145.558594 132.109375 146.261719 131.410156 147.125 131.410156 " fill-opacity="1" fill-rule="evenodd"/><path fill="#ee5622" d="M 155.058594 137.472656 L 178.6875 137.472656 C 179.550781 137.472656 180.257812 138.175781 180.257812 139.035156 C 180.257812 139.894531 179.550781 140.59375 178.6875 140.59375 L 155.058594 140.59375 C 154.195312 140.59375 153.492188 139.894531 153.492188 139.035156 C 153.492188 138.175781 154.195312 137.472656 155.058594 137.472656 " fill-opacity="1" fill-rule="evenodd"/><path fill="#ee5622" d="M 130.863281 143.535156 L 169.507812 143.535156 C 170.367188 143.535156 171.074219 144.238281 171.074219 145.097656 C 171.074219 145.957031 170.367188 146.660156 169.507812 146.660156 L 130.863281 146.660156 C 130.003906 146.660156 129.296875 145.957031 129.296875 145.097656 C 129.296875 144.238281 130.003906 143.535156 130.863281 143.535156 " fill-opacity="1" fill-rule="evenodd"/><path fill="#ee5622" d="M 136.449219 149.601562 L 166.589844 149.601562 C 167.453125 149.601562 168.15625 150.304688 168.15625 151.164062 C 168.15625 152.019531 167.453125 152.722656 166.589844 152.722656 L 136.449219 152.722656 C 135.585938 152.722656 134.878906 152.019531 134.878906 151.164062 C 134.878906 150.304688 135.585938 149.601562 136.449219 149.601562 " fill-opacity="1" fill-rule="evenodd"/><g clip-path="url(#59f85446f0)"><path fill="#ee5622" d="M 113.917969 155.664062 L 158.289062 155.664062 C 159.152344 155.664062 159.855469 156.367188 159.855469 157.226562 C 159.855469 158.085938 159.152344 158.789062 158.289062 158.789062 L 113.917969 158.789062 C 113.054688 158.789062 112.347656 158.085938 112.347656 157.226562 C 112.347656 156.367188 113.054688 155.664062 113.917969 155.664062 " fill-opacity="1" fill-rule="evenodd"/></g><path fill="#ee5622" d="M 126.359375 161.730469 L 159.277344 161.730469 C 160.140625 161.730469 160.84375 162.433594 160.84375 163.289062 C 160.84375 164.148438 160.140625 164.851562 159.277344 164.851562 L 126.359375 164.851562 C 125.496094 164.851562 124.792969 164.148438 124.792969 163.289062 C 124.792969 162.433594 125.496094 161.730469 126.359375 161.730469 " fill-opacity="1" fill-rule="evenodd"/><g clip-path="url(#3941c6f407)"><path fill="#ee5622" d="M 113.867188 167.792969 L 158.238281 167.792969 C 159.101562 167.792969 159.804688 168.496094 159.804688 169.355469 C 159.804688 170.214844 159.097656 170.914062 158.238281 170.914062 L 113.867188 170.914062 C 113.003906 170.914062 112.296875 170.214844 112.296875 169.355469 C 112.296875 168.496094 113.003906 167.792969 113.867188 167.792969 " fill-opacity="1" fill-rule="evenodd"/></g><path fill="#ee5622" d="M 139.386719 173.859375 L 157.773438 173.859375 C 158.632812 173.859375 159.339844 174.558594 159.339844 175.417969 C 159.339844 176.277344 158.632812 176.980469 157.773438 176.980469 L 139.386719 176.980469 C 138.523438 176.980469 137.820312 176.277344 137.820312 175.417969 C 137.820312 174.558594 138.523438 173.859375 139.386719 173.859375 " fill-opacity="1" fill-rule="evenodd"/><path fill="#ee5622" d="M 129.6875 179.921875 L 158.871094 179.921875 C 159.734375 179.921875 160.4375 180.625 160.4375 181.484375 C 160.4375 182.339844 159.734375 183.042969 158.871094 183.042969 L 129.6875 183.042969 C 128.828125 183.042969 128.121094 182.339844 128.121094 181.484375 C 128.121094 180.625 128.828125 179.921875 129.6875 179.921875 " fill-opacity="1" fill-rule="evenodd"/><path fill="#ee5622" d="M 131.160156 131.410156 L 139.777344 131.410156 C 140.640625 131.410156 141.34375 132.113281 141.34375 132.96875 C 141.34375 133.828125 140.640625 134.53125 139.777344 134.53125 L 131.160156 134.53125 C 130.296875 134.53125 129.59375 133.828125 129.59375 132.96875 C 129.589844 132.109375 130.296875 131.410156 131.160156 131.410156 " fill-opacity="1" fill-rule="evenodd"/><path fill="#ee5622" d="M 116.5625 143.535156 L 125.183594 143.535156 C 126.046875 143.535156 126.75 144.238281 126.75 145.097656 C 126.75 145.957031 126.046875 146.660156 125.183594 146.660156 L 116.5625 146.660156 C 115.703125 146.660156 114.996094 145.957031 114.996094 145.097656 C 114.996094 144.238281 115.703125 143.535156 116.5625 143.535156 " fill-opacity="1" fill-rule="evenodd"/><path fill="#ee5622" d="M 125.085938 173.859375 L 133.703125 173.859375 C 134.566406 173.859375 135.273438 174.558594 135.273438 175.417969 C 135.273438 176.277344 134.566406 176.980469 133.703125 176.980469 L 125.085938 176.980469 C 124.222656 176.980469 123.519531 176.277344 123.519531 175.417969 C 123.519531 174.558594 124.222656 173.859375 125.085938 173.859375 " fill-opacity="1" fill-rule="evenodd"/><g fill="#221e22" fill-opacity="1"><g transform="translate(124.973697, 225.917124)"><g><path d="M 2.84375 0 L 2.84375 -25.90625 L 21.390625 -25.90625 L 21.390625 -23.390625 L 5.703125 -23.390625 L 5.703125 -14.328125 L 15.953125 -14.328125 L 15.953125 -11.84375 L 5.703125 -11.84375 L 5.703125 -2.515625 L 21.546875 -2.515625 L 21.546875 0 Z M 2.84375 0 "/></g></g></g><g fill="#221e22" fill-opacity="1"><g transform="translate(147.777708, 225.917124)"><g><path d="M 10.765625 0 L 0.140625 -25.90625 L 3.21875 -25.90625 L 12.578125 -2.671875 L 22.09375 -25.90625 L 24.984375 -25.90625 L 14.21875 0 Z M 10.765625 0 "/></g></g></g><g fill="#221e22" fill-opacity="1"><g transform="translate(172.913945, 225.917124)"><g><path d="M 0.140625 0 L 10.921875 -25.90625 L 14.359375 -25.90625 L 24.984375 0 L 21.875 0 L 18.625 -8.140625 L 6.40625 -8.140625 L 3.109375 0 Z M 7.40625 -10.59375 L 17.625 -10.59375 L 12.546875 -23.25 Z M 7.40625 -10.59375 "/></g></g></g><g fill="#221e22" fill-opacity="1"><g transform="translate(198.050181, 225.917124)"><g><path d="M 2.84375 -25.90625 L 5.703125 -25.90625 L 21.28125 -4.890625 L 21.28125 -25.90625 L 23.984375 -25.90625 L 23.984375 0 L 21.46875 0 L 5.546875 -21.578125 L 5.546875 0 L 2.84375 0 Z M 2.84375 -25.90625 "/></g></g></g><g fill="#221e22" fill-opacity="1"><g transform="translate(224.889309, 225.917124)"><g><path d="M 0.140625 0 L 10.921875 -25.90625 L 14.359375 -25.90625 L 24.984375 0 L 21.875 0 L 18.625 -8.140625 L 6.40625 -8.140625 L 3.109375 0 Z M 7.40625 -10.59375 L 17.625 -10.59375 L 12.546875 -23.25 Z M 7.40625 -10.59375 "/></g></g></g><g fill="#ee5622" fill-opacity="1"><g transform="translate(108.041599, 243.452393)"><g><path d="M 0.671875 -6.15625 L 1.359375 -6.15625 L 5.0625 -1.15625 L 5.0625 -6.15625 L 5.703125 -6.15625 L 5.703125 0 L 5.109375 0 L 1.3125 -5.125 L 1.3125 0 L 0.671875 0 Z M 0.671875 -6.15625 "/></g></g></g><g fill="#ee5622" fill-opacity="1"><g transform="translate(121.453168, 243.452393)"><g><path d="M 5.640625 -2.609375 C 5.640625 -1.785156 5.40625 -1.128906 4.9375 -0.640625 C 4.476562 -0.148438 3.863281 0.09375 3.09375 0.09375 C 2.3125 0.09375 1.691406 -0.144531 1.234375 -0.625 C 0.773438 -1.113281 0.546875 -1.773438 0.546875 -2.609375 L 0.546875 -6.15625 L 1.234375 -6.15625 L 1.234375 -2.609375 C 1.234375 -1.972656 1.398438 -1.46875 1.734375 -1.09375 C 2.078125 -0.71875 2.53125 -0.53125 3.09375 -0.53125 C 3.65625 -0.53125 4.109375 -0.71875 4.453125 -1.09375 C 4.796875 -1.46875 4.96875 -1.972656 4.96875 -2.609375 L 4.96875 -6.15625 L 5.640625 -6.15625 Z M 5.640625 -2.609375 "/></g></g></g><g fill="#ee5622" fill-opacity="1"><g transform="translate(134.680055, 243.452393)"><g><path d="M 3.71875 -0.4375 L 1.3125 -5.375 L 1.3125 0 L 0.671875 0 L 0.671875 -6.15625 L 1.625 -6.15625 L 3.734375 -1.78125 L 5.828125 -6.15625 L 6.78125 -6.15625 L 6.78125 0 L 6.125 0 L 6.125 -5.390625 Z M 3.71875 -0.4375 "/></g></g></g><g fill="#ee5622" fill-opacity="1"><g transform="translate(149.164562, 243.452393)"><g><path d="M 0.671875 -6.15625 L 3.171875 -6.15625 C 3.765625 -6.15625 4.238281 -6.007812 4.59375 -5.71875 C 4.945312 -5.4375 5.125 -5.054688 5.125 -4.578125 C 5.125 -4.253906 5.039062 -3.972656 4.875 -3.734375 C 4.707031 -3.503906 4.472656 -3.328125 4.171875 -3.203125 C 4.546875 -3.097656 4.835938 -2.914062 5.046875 -2.65625 C 5.265625 -2.394531 5.375 -2.085938 5.375 -1.734375 C 5.375 -1.203125 5.179688 -0.78125 4.796875 -0.46875 C 4.410156 -0.15625 3.90625 0 3.28125 0 L 0.671875 0 Z M 3.140625 -5.5625 L 1.359375 -5.5625 L 1.359375 -3.46875 L 3.140625 -3.46875 C 3.535156 -3.46875 3.851562 -3.5625 4.09375 -3.75 C 4.332031 -3.945312 4.453125 -4.203125 4.453125 -4.515625 C 4.453125 -4.835938 4.332031 -5.09375 4.09375 -5.28125 C 3.851562 -5.46875 3.535156 -5.5625 3.140625 -5.5625 Z M 3.234375 -0.59375 C 3.671875 -0.59375 4.019531 -0.695312 4.28125 -0.90625 C 4.550781 -1.113281 4.6875 -1.394531 4.6875 -1.75 C 4.6875 -2.101562 4.550781 -2.382812 4.28125 -2.59375 C 4.019531 -2.800781 3.671875 -2.90625 3.234375 -2.90625 L 1.359375 -2.90625 L 1.359375 -0.59375 Z M 3.234375 -0.59375 "/></g></g></g><g fill="#ee5622" fill-opacity="1"><g transform="translate(161.978101, 243.452393)"><g><path d="M 0.671875 0 L 0.671875 -6.15625 L 5.078125 -6.15625 L 5.078125 -5.5625 L 1.359375 -5.5625 L 1.359375 -3.40625 L 3.796875 -3.40625 L 3.796875 -2.8125 L 1.359375 -2.8125 L 1.359375 -0.59375 L 5.125 -0.59375 L 5.125 0 Z M 0.671875 0 "/></g></g></g><g fill="#ee5622" fill-opacity="1"><g transform="translate(174.431076, 243.452393)"><g><path d="M 0.671875 0 L 0.671875 -6.15625 L 3.3125 -6.15625 C 3.914062 -6.15625 4.398438 -5.992188 4.765625 -5.671875 C 5.140625 -5.347656 5.328125 -4.921875 5.328125 -4.390625 C 5.328125 -3.984375 5.207031 -3.632812 4.96875 -3.34375 C 4.726562 -3.050781 4.410156 -2.847656 4.015625 -2.734375 L 5.390625 0 L 4.640625 0 L 3.328125 -2.640625 L 1.359375 -2.640625 L 1.359375 0 Z M 3.265625 -5.546875 L 1.359375 -5.546875 L 1.359375 -3.21875 L 3.265625 -3.21875 C 3.679688 -3.21875 4.015625 -3.320312 4.265625 -3.53125 C 4.515625 -3.75 4.640625 -4.035156 4.640625 -4.390625 C 4.640625 -4.742188 4.515625 -5.023438 4.265625 -5.234375 C 4.015625 -5.441406 3.679688 -5.546875 3.265625 -5.546875 Z M 3.265625 -5.546875 "/></g></g></g><g fill="#ee5622" fill-opacity="1"><g transform="translate(187.139084, 243.452393)"><g/></g></g><g fill="#ee5622" fill-opacity="1"><g transform="translate(196.065456, 243.452393)"><g><path d="M 0.671875 0 L 0.671875 -6.15625 L 3.3125 -6.15625 C 3.914062 -6.15625 4.398438 -5.992188 4.765625 -5.671875 C 5.140625 -5.347656 5.328125 -4.921875 5.328125 -4.390625 C 5.328125 -3.984375 5.207031 -3.632812 4.96875 -3.34375 C 4.726562 -3.050781 4.410156 -2.847656 4.015625 -2.734375 L 5.390625 0 L 4.640625 0 L 3.328125 -2.640625 L 1.359375 -2.640625 L 1.359375 0 Z M 3.265625 -5.546875 L 1.359375 -5.546875 L 1.359375 -3.21875 L 3.265625 -3.21875 C 3.679688 -3.21875 4.015625 -3.320312 4.265625 -3.53125 C 4.515625 -3.75 4.640625 -4.035156 4.640625 -4.390625 C 4.640625 -4.742188 4.515625 -5.023438 4.265625 -5.234375 C 4.015625 -5.441406 3.679688 -5.546875 3.265625 -5.546875 Z M 3.265625 -5.546875 "/></g></g></g><g fill="#ee5622" fill-opacity="1"><g transform="translate(208.773469, 243.452393)"><g><path d="M 5.640625 -2.609375 C 5.640625 -1.785156 5.40625 -1.128906 4.9375 -0.640625 C 4.476562 -0.148438 3.863281 0.09375 3.09375 0.09375 C 2.3125 0.09375 1.691406 -0.144531 1.234375 -0.625 C 0.773438 -1.113281 0.546875 -1.773438 0.546875 -2.609375 L 0.546875 -6.15625 L 1.234375 -6.15625 L 1.234375 -2.609375 C 1.234375 -1.972656 1.398438 -1.46875 1.734375 -1.09375 C 2.078125 -0.71875 2.53125 -0.53125 3.09375 -0.53125 C 3.65625 -0.53125 4.109375 -0.71875 4.453125 -1.09375 C 4.796875 -1.46875 4.96875 -1.972656 4.96875 -2.609375 L 4.96875 -6.15625 L 5.640625 -6.15625 Z M 5.640625 -2.609375 "/></g></g></g><g fill="#ee5622" fill-opacity="1"><g transform="translate(222.00036, 243.452393)"><g><path d="M 0.671875 -6.15625 L 1.359375 -6.15625 L 5.0625 -1.15625 L 5.0625 -6.15625 L 5.703125 -6.15625 L 5.703125 0 L 5.109375 0 L 1.3125 -5.125 L 1.3125 0 L 0.671875 0 Z M 0.671875 -6.15625 "/></g></g></g><g fill="#ee5622" fill-opacity="1"><g transform="translate(235.411933, 243.452393)"><g><path d="M 0.671875 -6.15625 L 1.359375 -6.15625 L 5.0625 -1.15625 L 5.0625 -6.15625 L 5.703125 -6.15625 L 5.703125 0 L 5.109375 0 L 1.3125 -5.125 L 1.3125 0 L 0.671875 0 Z M 0.671875 -6.15625 "/></g></g></g><g fill="#ee5622" fill-opacity="1"><g transform="translate(248.823507, 243.452393)"><g><path d="M 0.671875 0 L 0.671875 -6.15625 L 5.078125 -6.15625 L 5.078125 -5.5625 L 1.359375 -5.5625 L 1.359375 -3.40625 L 3.796875 -3.40625 L 3.796875 -2.8125 L 1.359375 -2.8125 L 1.359375 -0.59375 L 5.125 -0.59375 L 5.125 0 Z M 0.671875 0 "/></g></g></g><g fill="#ee5622" fill-opacity="1"><g transform="translate(261.276487, 243.452393)"><g><path d="M 0.671875 0 L 0.671875 -6.15625 L 3.3125 -6.15625 C 3.914062 -6.15625 4.398438 -5.992188 4.765625 -5.671875 C 5.140625 -5.347656 5.328125 -4.921875 5.328125 -4.390625 C 5.328125 -3.984375 5.207031 -3.632812 4.96875 -3.34375 C 4.726562 -3.050781 4.410156 -2.847656 4.015625 -2.734375 L 5.390625 0 L 4.640625 0 L 3.328125 -2.640625 L 1.359375 -2.640625 L 1.359375 0 Z M 3.265625 -5.546875 L 1.359375 -5.546875 L 1.359375 -3.21875 L 3.265625 -3.21875 C 3.679688 -3.21875 4.015625 -3.320312 4.265625 -3.53125 C 4.515625 -3.75 4.640625 -4.035156 4.640625 -4.390625 C 4.640625 -4.742188 4.515625 -5.023438 4.265625 -5.234375 C 4.015625 -5.441406 3.679688 -5.546875 3.265625 -5.546875 Z M 3.265625 -5.546875 "/></g></g></g></svg>